<svg width="158" height="50" viewBox="0 0 158 50" fill="none" xmlns="http://www.w3.org/2000/svg">
<path d="M47.4135 37.801C46.5915 43.855 43.0035 47.6215 36.795 48.427C33.393 48.868 29.094 49 24 49C18.906 49 14.6175 48.7945 11.208 48.427C5.325 47.794 1.224 44.113 0.5895 37.807C0.2265 34.1995 0 29.7625 0 24.8155C0 19.8685 0.159 15.679 0.5835 12.1765C1.308 6.1915 4.983 2.1685 11.238 1.552C14.6805 1.213 18.9765 1 24 1C29.0235 1 33.327 1.1605 36.765 1.552C42.918 2.254 46.5915 6.277 47.4195 12.184C47.9055 15.6505 48 19.954 48 24.817C48 29.68 47.898 34.2385 47.4135 37.8025V37.801Z" fill="#FF7B3D"/>
<path d="M28.2932 40.7877C29.0823 40.9849 29.9173 40.9627 30.6654 40.6436C36.7413 38.0514 41 32.0231 41 25C41 15.6112 33.3888 8 24 8C14.6112 8 7 15.6112 7 25C7 32.023 11.2587 38.0514 17.3346 40.6436C18.0827 40.9627 18.9177 40.9849 19.7068 40.7877C20.8583 40.4998 21.7051 39.52 21.8232 38.3389L21.8286 38.2857C21.8381 38.1899 21.7709 38.1036 21.6758 38.0882C21.1131 37.9971 20.5543 37.8728 20.0026 37.7151C15.7675 36.5051 13.5705 31.8389 15.3359 27.8036L21.2515 14.2822C22.3001 11.8855 25.6999 11.8855 26.7485 14.2822L32.6641 27.8036C34.4295 31.8389 32.2326 36.5051 27.9974 37.7151C27.4457 37.8728 26.887 37.9971 26.3242 38.0882C26.2291 38.1036 26.1618 38.1899 26.1714 38.2857L26.1768 38.339C26.2949 39.52 27.1417 40.4998 28.2932 40.7877Z" fill="white"/>
<path d="M27 31C27 32.6569 25.6569 34 24 34C22.3431 34 21 32.6569 21 31C21 29.3431 22.3431 28 24 28C25.6569 28 27 29.3431 27 31Z" fill="white"/>
<path fill-rule="evenodd" clip-rule="evenodd" d="M65.0873 10.2789C70.4585 10.2789 73.807 13.1834 73.807 17.3504H73.8053V32.6853C73.8053 33.5046 73.1356 34.1695 72.3103 34.1695H68.4697C68.1382 34.1695 67.871 33.9025 67.871 33.5751V32.1078C67.663 32.2925 67.4448 32.4503 67.2216 32.5829C65.2192 33.9294 63.2795 34.6463 61.037 34.6463C57.1506 34.6463 54 31.5185 54 27.6604C54 26.7421 54.181 25.8657 54.5057 25.0615C54.9098 23.9535 55.588 23.0804 56.4268 22.3854C56.9105 21.969 57.4703 21.6399 58.0368 21.3411C58.0509 21.3337 58.0656 21.3259 58.081 21.3177C58.6868 20.997 60.364 20.1089 65.0873 19.3214C66.7193 19.0377 67.8727 18.8278 67.8727 18.8278V17.9195C67.8727 16.2423 65.9718 15.5288 64.2451 15.5288C62.1717 15.5288 60.8357 16.5848 59.9309 17.9212C59.5284 18.5139 58.7657 18.7489 58.1028 18.4719L55.7385 17.4847C54.8828 17.1271 54.5615 16.0929 55.0587 15.3139C57.1118 12.0972 59.7162 10.2789 65.0873 10.2789ZM67.871 23.5052C67.871 23.5052 67.3552 23.5925 65.0924 24.2321H65.0907C62.9953 24.8248 61.8538 25.3402 61.2095 26.1091C60.9034 26.4751 60.6531 27.0124 60.6531 27.5731C60.6531 28.7954 61.6526 29.7876 62.8837 29.7876H63.1137C63.8054 29.7876 65.3917 29.1429 66.7024 28.421C67.2114 28.1406 67.5108 27.9744 67.6782 27.8804C67.7983 27.8132 67.871 27.6873 67.871 27.5513V23.5052Z" fill="#2A3551"/>
<path d="M110.696 28.5368C107.599 28.5368 105.088 25.7079 105.088 22.4021C105.088 19.0964 107.597 16.2675 110.696 16.2675C112.385 16.2675 113.899 17.2161 114.927 18.4769C115.45 19.1182 116.358 19.3063 117.107 18.947L119.556 17.7785C120.356 17.3974 120.662 16.4119 120.202 15.658C118.171 12.3423 114.682 10.1547 110.721 10.1547C104.449 10.1547 99.3649 15.6379 99.3649 22.4005C99.3649 29.163 104.449 34.6462 110.721 34.6462C114.682 34.6462 118.171 32.4586 120.202 29.1429C120.663 28.3907 120.356 27.4035 119.556 27.0224L117.107 25.8539C116.358 25.4963 115.45 25.6827 114.927 26.3257C113.899 27.5865 112.385 28.5351 110.696 28.5351V28.5368Z" fill="#2A3551"/>
<path d="M81.7881 22.4089C81.7881 25.7129 84.2978 28.5402 87.3927 28.5402V28.5385C89.0804 28.5385 90.594 27.5916 91.6206 26.3308C92.1432 25.6894 93.0496 25.5031 93.7988 25.8607L96.2459 27.0275C97.0442 27.4086 97.352 28.3941 96.8903 29.1462C94.8592 32.4604 91.3737 34.6463 87.4146 34.6463C81.1472 34.6463 76.0652 29.1664 76.0652 22.4072C76.0652 15.648 81.1472 10.1681 87.4146 10.1681C91.3737 10.1681 94.8592 12.354 96.8903 15.6681C97.352 16.4203 97.0459 17.4058 96.2459 17.7869L93.7988 18.9554C93.0496 19.313 92.1432 19.1267 91.6206 18.4853C90.594 17.2245 89.0804 16.2776 87.3927 16.2776C84.2978 16.2776 81.7881 19.1048 81.7881 22.4089Z" fill="#2A3551"/>
<path d="M153.456 26.4206V3.78586C153.456 3.06226 152.984 2.41925 152.289 2.19932L148.78 1.08118C147.696 0.735327 146.588 1.53784 146.588 2.66772V26.5331H146.595C146.739 30.915 149.386 34.5783 153.874 34.5783H156.319C157.547 34.5783 158.359 33.3141 157.841 32.2077L156.543 29.4359C156.417 29.1689 156.159 28.9876 155.863 28.9591C153.642 28.7442 153.455 26.9847 153.455 26.4206H153.456Z" fill="#2A3551"/>
<path d="M138.306 10.7289C137.433 10.7289 136.725 11.4189 136.725 12.2717V25.6726C136.087 27.5647 134.266 28.9313 132.113 28.9313C132.076 28.9313 132.038 28.9296 132.001 28.928C131.98 28.928 131.959 28.9288 131.938 28.9296C131.917 28.9305 131.895 28.9313 131.873 28.9313C130.097 28.9313 128.658 27.5278 128.658 25.7952L128.656 25.7935V12.2717C128.656 11.4206 127.947 10.7289 127.075 10.7289H124.257C123.385 10.7289 122.676 11.4189 122.676 12.2717V27.1886H122.679C122.735 31.317 125.864 34.6479 130.109 34.6479H130.222C132.705 34.6479 134.976 33.7665 136.726 32.3059V33.8085C136.726 34.1493 137.009 34.4263 137.359 34.4263H141.418C142.29 34.4263 142.999 33.7363 142.999 32.8834V12.2717C142.999 11.4206 142.29 10.7289 141.418 10.7289H138.306Z" fill="#2A3551"/>
<path d="M56.7344 42.8276L58.0703 44.0385L57.4062 44.6518L56.0977 43.4487L56.7344 42.8276ZM58.0352 40.351V41.2573C58.0352 41.6661 57.987 42.0255 57.8906 42.3354C57.7969 42.6427 57.6602 42.8992 57.4805 43.1049C57.3034 43.3107 57.0911 43.4656 56.8438 43.5698C56.5964 43.674 56.3229 43.726 56.0234 43.726C55.7214 43.726 55.4466 43.674 55.1992 43.5698C54.9544 43.4656 54.7422 43.3107 54.5625 43.1049C54.3854 42.8992 54.2474 42.6427 54.1484 42.3354C54.0495 42.0255 54 41.6661 54 41.2573V40.351C54 39.9422 54.0482 39.5841 54.1445 39.2768C54.2409 38.9695 54.3789 38.713 54.5586 38.5073C54.7383 38.299 54.9505 38.1427 55.1953 38.0385C55.4427 37.9344 55.7161 37.8823 56.0156 37.8823C56.3177 37.8823 56.5924 37.9344 56.8398 38.0385C57.0872 38.1427 57.3008 38.299 57.4805 38.5073C57.6602 38.713 57.7969 38.9695 57.8906 39.2768C57.987 39.5841 58.0352 39.9422 58.0352 40.351ZM56.9922 41.2573V40.3432C56.9922 40.0646 56.9714 39.825 56.9297 39.6245C56.888 39.424 56.8255 39.2612 56.7422 39.1362C56.6589 39.0086 56.556 38.9148 56.4336 38.8549C56.3138 38.7951 56.1745 38.7651 56.0156 38.7651C55.8594 38.7651 55.7201 38.7951 55.5977 38.8549C55.4779 38.9148 55.3763 39.0086 55.293 39.1362C55.2122 39.2612 55.1497 39.424 55.1055 39.6245C55.0638 39.825 55.043 40.0646 55.043 40.3432V41.2573C55.043 41.5385 55.0638 41.7794 55.1055 41.9799C55.1497 42.1805 55.2135 42.3458 55.2969 42.476C55.3802 42.6036 55.4818 42.6974 55.6016 42.7573C55.724 42.8172 55.8646 42.8471 56.0234 42.8471C56.1797 42.8471 56.3177 42.8172 56.4375 42.7573C56.5599 42.6974 56.6628 42.6036 56.7461 42.476C56.8294 42.3458 56.8906 42.1805 56.9297 41.9799C56.9714 41.7794 56.9922 41.5385 56.9922 41.2573Z" fill="#FF7B3D"/>
<path d="M60.9453 42.6401V39.4214H61.9492V43.6479H61.0078L60.9453 42.6401ZM61.0742 41.7651L61.3672 41.7573C61.3672 42.0411 61.3411 42.3029 61.2891 42.5424C61.237 42.782 61.1562 42.9904 61.0469 43.1674C60.9375 43.3445 60.7982 43.4826 60.6289 43.5815C60.4622 43.6779 60.2643 43.726 60.0352 43.726C59.8607 43.726 59.7018 43.6974 59.5586 43.6401C59.4154 43.5802 59.2917 43.4878 59.1875 43.3628C59.0833 43.2352 59.0026 43.0724 58.9453 42.8745C58.888 42.674 58.8594 42.4344 58.8594 42.1557V39.4214H59.8633V42.1635C59.8633 42.2938 59.8737 42.4057 59.8945 42.4995C59.918 42.5906 59.9505 42.6648 59.9922 42.7221C60.0339 42.7768 60.082 42.8159 60.1367 42.8393C60.1914 42.8628 60.2513 42.8745 60.3164 42.8745C60.5065 42.8745 60.6562 42.8263 60.7656 42.7299C60.8776 42.6336 60.957 42.5021 61.0039 42.3354C61.0508 42.1661 61.0742 41.976 61.0742 41.7651Z" fill="#FF7B3D"/>
<path d="M64.7148 42.7339V40.7026C64.7148 40.5646 64.6966 40.4552 64.6602 40.3745C64.6263 40.2938 64.5755 40.2352 64.5078 40.1987C64.4401 40.1596 64.3568 40.1401 64.2578 40.1401C64.151 40.1401 64.0612 40.1622 63.9883 40.2065C63.9154 40.2482 63.8607 40.3094 63.8242 40.3901C63.7904 40.4682 63.7734 40.5607 63.7734 40.6674H62.7695C62.7695 40.4904 62.8047 40.3224 62.875 40.1635C62.9453 40.0047 63.0469 39.8641 63.1797 39.7417C63.3125 39.6167 63.4727 39.519 63.6602 39.4487C63.8477 39.3784 64.0573 39.3432 64.2891 39.3432C64.5651 39.3432 64.8099 39.3901 65.0234 39.4839C65.2396 39.575 65.4089 39.7221 65.5312 39.9253C65.6562 40.1258 65.7188 40.3888 65.7188 40.7143V42.644C65.7188 42.8602 65.7305 43.0438 65.7539 43.1948C65.7799 43.3458 65.8177 43.4747 65.8672 43.5815V43.6479H64.8516C64.8073 43.5385 64.7734 43.4005 64.75 43.2339C64.7266 43.0646 64.7148 42.8979 64.7148 42.7339ZM64.8438 41.0698L64.8477 41.6948H64.4258C64.3086 41.6948 64.2044 41.7117 64.1133 41.7456C64.0247 41.7794 63.9492 41.8276 63.8867 41.8901C63.8242 41.9526 63.7773 42.0268 63.7461 42.1128C63.7148 42.1987 63.6992 42.2924 63.6992 42.394C63.6992 42.5112 63.7161 42.6089 63.75 42.687C63.7839 42.7625 63.8333 42.8198 63.8984 42.8589C63.9635 42.8953 64.043 42.9135 64.1367 42.9135C64.2695 42.9135 64.3841 42.8849 64.4805 42.8276C64.5794 42.7703 64.6536 42.7026 64.7031 42.6245C64.7552 42.5438 64.7747 42.4682 64.7617 42.3979L64.9883 42.8042C64.9622 42.9005 64.9219 43.0021 64.8672 43.1089C64.8125 43.2156 64.7422 43.3159 64.6562 43.4096C64.5729 43.5034 64.4701 43.5802 64.3477 43.6401C64.2279 43.6974 64.0859 43.726 63.9219 43.726C63.6901 43.726 63.4805 43.6753 63.293 43.5737C63.1081 43.4721 62.9622 43.3289 62.8555 43.144C62.7487 42.9565 62.6953 42.7326 62.6953 42.4721C62.6953 42.2586 62.7305 42.0659 62.8008 41.894C62.8711 41.7221 62.974 41.575 63.1094 41.4526C63.2474 41.3302 63.4219 41.2365 63.6328 41.1714C63.8438 41.1036 64.0911 41.0698 64.375 41.0698H64.8438Z" fill="#FF7B3D"/>
<path d="M67.5781 40.3237V43.6479H66.5742V39.4214H67.5117L67.5781 40.3237ZM67.4141 41.3862L67.125 41.3901C67.1198 41.0802 67.1497 40.8003 67.2148 40.5503C67.2826 40.2977 67.3789 40.0815 67.5039 39.9018C67.6289 39.7221 67.7786 39.5841 67.9531 39.4878C68.1276 39.3914 68.3229 39.3432 68.5391 39.3432C68.7057 39.3432 68.8568 39.3719 68.9922 39.4292C69.1302 39.4865 69.2487 39.5776 69.3477 39.7026C69.4466 39.8276 69.5234 39.9917 69.5781 40.1948C69.6328 40.3979 69.6602 40.6466 69.6602 40.9409V43.6479H68.6562V40.9331C68.6562 40.743 68.6354 40.5945 68.5938 40.4878C68.5547 40.3784 68.4961 40.3016 68.418 40.2573C68.3424 40.2104 68.2448 40.187 68.125 40.187C68.013 40.187 67.9128 40.2182 67.8242 40.2807C67.7357 40.3406 67.6602 40.4266 67.5977 40.5385C67.5378 40.6479 67.4922 40.7755 67.4609 40.9214C67.4297 41.0646 67.4141 41.2195 67.4141 41.3862Z" fill="#FF7B3D"/>
<path d="M72.6016 42.7417V37.6479H73.6016V43.6479L72.6953 43.6518L72.6016 42.7417ZM70.3672 41.6948V41.3901C70.3672 41.0438 70.3971 40.743 70.457 40.4878C70.5195 40.2299 70.6094 40.0164 70.7266 39.8471C70.8464 39.6779 70.9922 39.5516 71.1641 39.4682C71.3359 39.3849 71.5312 39.3432 71.75 39.3432C71.9557 39.3432 72.1354 39.3927 72.2891 39.4917C72.4427 39.588 72.5716 39.7247 72.6758 39.9018C72.7826 40.0789 72.8685 40.2898 72.9336 40.5346C72.9987 40.7768 73.0443 41.0438 73.0703 41.3354V41.7729C73.0391 42.0516 72.9909 42.3107 72.9258 42.5503C72.8633 42.7898 72.7786 42.9969 72.6719 43.1714C72.5651 43.3458 72.4349 43.4826 72.2812 43.5815C72.1302 43.6779 71.9518 43.726 71.7461 43.726C71.5273 43.726 71.332 43.6831 71.1602 43.5971C70.9909 43.5086 70.8464 43.3797 70.7266 43.2104C70.6094 43.0385 70.5195 42.8263 70.457 42.5737C70.3971 42.3185 70.3672 42.0255 70.3672 41.6948ZM71.3711 41.3901V41.6948C71.3711 41.9005 71.3828 42.0789 71.4062 42.2299C71.4297 42.3784 71.4661 42.5008 71.5156 42.5971C71.5677 42.6909 71.6354 42.7612 71.7188 42.8081C71.8047 42.8523 71.9089 42.8745 72.0312 42.8745C72.1875 42.8745 72.3138 42.8354 72.4102 42.7573C72.5091 42.6792 72.5846 42.5724 72.6367 42.437C72.6888 42.299 72.7227 42.1427 72.7383 41.9682V41.144C72.7305 41.0034 72.7096 40.8745 72.6758 40.7573C72.6419 40.6401 72.5964 40.5398 72.5391 40.4565C72.4818 40.3706 72.4115 40.3042 72.3281 40.2573C72.2448 40.2104 72.1471 40.187 72.0352 40.187C71.9128 40.187 71.8086 40.2117 71.7227 40.2612C71.6393 40.3081 71.5716 40.3797 71.5195 40.476C71.4701 40.5724 71.4323 40.6974 71.4062 40.851C71.3828 41.0021 71.3711 41.1818 71.3711 41.3901Z" fill="#FF7B3D"/>
<path d="M77.5391 42.8471L78.2695 39.4214H79.3125L78.1289 43.6479H77.4961L77.5391 42.8471ZM77.0625 39.4214L77.8086 42.8549L77.8359 43.6479H77.2031L76.0156 39.4214H77.0625Z" fill="#FF7B3D"/>
<path d="M79.6875 41.6909V41.3823C79.6875 41.0516 79.7279 40.7599 79.8086 40.5073C79.8893 40.2521 80.0039 40.0385 80.1523 39.8667C80.3008 39.6948 80.4779 39.5646 80.6836 39.476C80.8919 39.3875 81.1224 39.3432 81.375 39.3432C81.6328 39.3432 81.8646 39.3875 82.0703 39.476C82.2786 39.5646 82.457 39.6948 82.6055 39.8667C82.7565 40.0385 82.8711 40.2521 82.9492 40.5073C83.0299 40.7599 83.0703 41.0516 83.0703 41.3823V41.6909C83.0703 42.0216 83.0299 42.3133 82.9492 42.5659C82.8711 42.8185 82.7565 43.032 82.6055 43.2065C82.457 43.3784 82.2786 43.5086 82.0703 43.5971C81.8646 43.6831 81.6354 43.726 81.3828 43.726C81.1302 43.726 80.8997 43.6831 80.6914 43.5971C80.4857 43.5086 80.3073 43.3784 80.1562 43.2065C80.0052 43.032 79.8893 42.8185 79.8086 42.5659C79.7279 42.3133 79.6875 42.0216 79.6875 41.6909ZM80.6914 41.3823V41.6909C80.6914 41.8966 80.707 42.075 80.7383 42.226C80.7695 42.3745 80.8151 42.4982 80.875 42.5971C80.9375 42.6961 81.0104 42.7703 81.0938 42.8198C81.1797 42.8667 81.276 42.8901 81.3828 42.8901C81.4974 42.8901 81.5977 42.8667 81.6836 42.8198C81.7695 42.7703 81.8411 42.6961 81.8984 42.5971C81.9557 42.4982 81.9987 42.3745 82.0273 42.226C82.056 42.075 82.0703 41.8966 82.0703 41.6909V41.3823C82.0703 41.1818 82.0534 41.006 82.0195 40.8549C81.9883 40.7039 81.9427 40.5789 81.8828 40.4799C81.8229 40.381 81.75 40.3068 81.6641 40.2573C81.5781 40.2052 81.4818 40.1792 81.375 40.1792C81.2708 40.1792 81.1771 40.2052 81.0938 40.2573C81.0104 40.3068 80.9375 40.381 80.875 40.4799C80.8151 40.5789 80.7695 40.7039 80.7383 40.8549C80.707 41.006 80.6914 41.1818 80.6914 41.3823Z" fill="#FF7B3D"/>
<path d="M85.7266 42.519C85.7266 42.4383 85.7005 42.3667 85.6484 42.3042C85.599 42.2417 85.5195 42.1779 85.4102 42.1128C85.3008 42.0477 85.1562 41.9773 84.9766 41.9018C84.7812 41.8237 84.6081 41.7443 84.457 41.6635C84.3086 41.5802 84.1823 41.4891 84.0781 41.3901C83.974 41.2885 83.8958 41.174 83.8438 41.0464C83.7917 40.9161 83.7656 40.7664 83.7656 40.5971C83.7656 40.4227 83.7982 40.2599 83.8633 40.1089C83.9284 39.9578 84.0221 39.825 84.1445 39.7104C84.2695 39.5958 84.4206 39.506 84.5977 39.4409C84.7747 39.3758 84.974 39.3432 85.1953 39.3432C85.5052 39.3432 85.7708 39.3992 85.9922 39.5112C86.2161 39.6206 86.3867 39.7742 86.5039 39.9721C86.6237 40.1701 86.6836 40.3979 86.6836 40.6557H85.6836C85.6836 40.5568 85.6667 40.4669 85.6328 40.3862C85.599 40.3055 85.5456 40.2417 85.4727 40.1948C85.3997 40.1453 85.306 40.1206 85.1914 40.1206C85.0951 40.1206 85.0117 40.1401 84.9414 40.1792C84.8737 40.2182 84.8216 40.2703 84.7852 40.3354C84.7487 40.3979 84.7305 40.4695 84.7305 40.5503C84.7305 40.6128 84.7422 40.6674 84.7656 40.7143C84.7917 40.7612 84.832 40.8068 84.8867 40.851C84.9414 40.8927 85.0143 40.937 85.1055 40.9839C85.1992 41.0281 85.3151 41.0802 85.4531 41.1401C85.7344 41.2469 85.9674 41.3602 86.1523 41.4799C86.3372 41.5971 86.4753 41.7352 86.5664 41.894C86.6576 42.0503 86.7031 42.2456 86.7031 42.4799C86.7031 42.6648 86.668 42.8341 86.5977 42.9878C86.5273 43.1414 86.4258 43.2742 86.293 43.3862C86.1628 43.4956 86.0052 43.5802 85.8203 43.6401C85.6354 43.6974 85.4284 43.726 85.1992 43.726C84.8633 43.726 84.5794 43.6596 84.3477 43.5268C84.1185 43.394 83.944 43.2221 83.8242 43.0112C83.707 42.8003 83.6484 42.5802 83.6484 42.351H84.6094C84.6146 42.5021 84.6445 42.6219 84.6992 42.7104C84.7565 42.7964 84.8307 42.8563 84.9219 42.8901C85.013 42.924 85.1107 42.9409 85.2148 42.9409C85.3294 42.9409 85.4245 42.9253 85.5 42.894C85.5755 42.8602 85.6315 42.812 85.668 42.7495C85.707 42.6844 85.7266 42.6076 85.7266 42.519Z" fill="#FF7B3D"/>
<path d="M89.3633 37.9604H91.1328C91.5104 37.9604 91.832 38.0255 92.0977 38.1557C92.3633 38.2859 92.5651 38.4786 92.7031 38.7339C92.8438 38.9891 92.9141 39.3029 92.9141 39.6753C92.9141 39.9721 92.8711 40.2299 92.7852 40.4487C92.7018 40.6648 92.582 40.8458 92.4258 40.9917C92.2721 41.1375 92.0859 41.2508 91.8672 41.3315L91.5508 41.5112H90.0859L90.082 40.6401H91.1094C91.2786 40.6401 91.4193 40.6023 91.5312 40.5268C91.6458 40.4513 91.7305 40.3471 91.7852 40.2143C91.8424 40.0789 91.8711 39.924 91.8711 39.7495C91.8711 39.5594 91.8451 39.3966 91.793 39.2612C91.7435 39.1232 91.6641 39.0177 91.5547 38.9448C91.4479 38.8719 91.3073 38.8354 91.1328 38.8354H90.4102V43.6479H89.3633V37.9604ZM91.9805 43.6479L90.9141 41.101H92.0117L93.0977 43.5932V43.6479H91.9805Z" fill="#FF7B3D"/>
<path d="M96.8867 40.2964V41.1674H94.5234V40.2964H96.8867ZM94.7969 37.9604V43.6479H93.75V37.9604H94.7969ZM97.6719 37.9604V43.6479H96.6328V37.9604H97.6719Z" fill="#FF7B3D"/>
<path d="M102.109 43.726C101.828 43.726 101.578 43.6831 101.359 43.5971C101.143 43.5112 100.96 43.3862 100.809 43.2221C100.658 43.0581 100.542 42.8563 100.461 42.6167C100.383 42.3771 100.344 42.1023 100.344 41.7924V41.4135C100.344 41.062 100.384 40.7573 100.465 40.4995C100.546 40.2391 100.658 40.0242 100.801 39.8549C100.947 39.6831 101.121 39.5555 101.324 39.4721C101.53 39.3862 101.757 39.3432 102.004 39.3432C102.27 39.3432 102.501 39.3875 102.699 39.476C102.9 39.562 103.065 39.6909 103.195 39.8628C103.326 40.0346 103.422 40.2482 103.484 40.5034C103.549 40.756 103.582 41.049 103.582 41.3823V41.8628H100.793V41.1323H102.598V41.0346C102.592 40.8523 102.57 40.6974 102.531 40.5698C102.492 40.4422 102.43 40.3458 102.344 40.2807C102.26 40.213 102.146 40.1792 102 40.1792C101.885 40.1792 101.786 40.2026 101.703 40.2495C101.62 40.2938 101.552 40.3641 101.5 40.4604C101.451 40.5542 101.413 40.6805 101.387 40.8393C101.361 40.9956 101.348 41.187 101.348 41.4135V41.7924C101.348 41.993 101.366 42.1635 101.402 42.3042C101.439 42.4422 101.492 42.5555 101.562 42.644C101.633 42.7299 101.719 42.7924 101.82 42.8315C101.922 42.8706 102.04 42.8901 102.176 42.8901C102.379 42.8901 102.557 42.8536 102.711 42.7807C102.865 42.7052 102.997 42.6049 103.109 42.4799L103.527 43.0932C103.452 43.1948 103.349 43.2951 103.219 43.394C103.089 43.4904 102.931 43.5698 102.746 43.6323C102.564 43.6948 102.352 43.726 102.109 43.726Z" fill="#FF7B3D"/>
<path d="M105.25 40.3237V43.6479H104.246V39.4214H105.184L105.25 40.3237ZM105.086 41.3862L104.797 41.3901C104.792 41.0802 104.822 40.8003 104.887 40.5503C104.954 40.2977 105.051 40.0815 105.176 39.9018C105.301 39.7221 105.451 39.5841 105.625 39.4878C105.799 39.3914 105.995 39.3432 106.211 39.3432C106.378 39.3432 106.529 39.3719 106.664 39.4292C106.802 39.4865 106.921 39.5776 107.02 39.7026C107.118 39.8276 107.195 39.9917 107.25 40.1948C107.305 40.3979 107.332 40.6466 107.332 40.9409V43.6479H106.328V40.9331C106.328 40.743 106.307 40.5945 106.266 40.4878C106.227 40.3784 106.168 40.3016 106.09 40.2573C106.014 40.2104 105.917 40.187 105.797 40.187C105.685 40.187 105.585 40.2182 105.496 40.2807C105.408 40.3406 105.332 40.4266 105.27 40.5385C105.21 40.6479 105.164 40.7755 105.133 40.9214C105.102 41.0646 105.086 41.2195 105.086 41.3862Z" fill="#FF7B3D"/>
<path d="M109.898 41.6909V41.3823C109.898 41.0516 109.939 40.7599 110.02 40.5073C110.1 40.2521 110.215 40.0385 110.363 39.8667C110.512 39.6948 110.689 39.5646 110.895 39.476C111.103 39.3875 111.333 39.3432 111.586 39.3432C111.844 39.3432 112.076 39.3875 112.281 39.476C112.49 39.5646 112.668 39.6948 112.816 39.8667C112.967 40.0385 113.082 40.2521 113.16 40.5073C113.241 40.7599 113.281 41.0516 113.281 41.3823V41.6909C113.281 42.0216 113.241 42.3133 113.16 42.5659C113.082 42.8185 112.967 43.032 112.816 43.2065C112.668 43.3784 112.49 43.5086 112.281 43.5971C112.076 43.6831 111.846 43.726 111.594 43.726C111.341 43.726 111.111 43.6831 110.902 43.5971C110.697 43.5086 110.518 43.3784 110.367 43.2065C110.216 43.032 110.1 42.8185 110.02 42.5659C109.939 42.3133 109.898 42.0216 109.898 41.6909ZM110.902 41.3823V41.6909C110.902 41.8966 110.918 42.075 110.949 42.226C110.98 42.3745 111.026 42.4982 111.086 42.5971C111.148 42.6961 111.221 42.7703 111.305 42.8198C111.391 42.8667 111.487 42.8901 111.594 42.8901C111.708 42.8901 111.809 42.8667 111.895 42.8198C111.98 42.7703 112.052 42.6961 112.109 42.5971C112.167 42.4982 112.21 42.3745 112.238 42.226C112.267 42.075 112.281 41.8966 112.281 41.6909V41.3823C112.281 41.1818 112.264 41.006 112.23 40.8549C112.199 40.7039 112.154 40.5789 112.094 40.4799C112.034 40.381 111.961 40.3068 111.875 40.2573C111.789 40.2052 111.693 40.1792 111.586 40.1792C111.482 40.1792 111.388 40.2052 111.305 40.2573C111.221 40.3068 111.148 40.381 111.086 40.4799C111.026 40.5789 110.98 40.7039 110.949 40.8549C110.918 41.006 110.902 41.1818 110.902 41.3823Z" fill="#FF7B3D"/>
<path d="M115.008 40.3237V43.6479H114.004V39.4214H114.941L115.008 40.3237ZM114.844 41.3862L114.555 41.3901C114.549 41.0802 114.579 40.8003 114.645 40.5503C114.712 40.2977 114.809 40.0815 114.934 39.9018C115.059 39.7221 115.208 39.5841 115.383 39.4878C115.557 39.3914 115.753 39.3432 115.969 39.3432C116.135 39.3432 116.286 39.3719 116.422 39.4292C116.56 39.4865 116.678 39.5776 116.777 39.7026C116.876 39.8276 116.953 39.9917 117.008 40.1948C117.062 40.3979 117.09 40.6466 117.09 40.9409V43.6479H116.086V40.9331C116.086 40.743 116.065 40.5945 116.023 40.4878C115.984 40.3784 115.926 40.3016 115.848 40.2573C115.772 40.2104 115.674 40.187 115.555 40.187C115.443 40.187 115.342 40.2182 115.254 40.2807C115.165 40.3406 115.09 40.4266 115.027 40.5385C114.967 40.6479 114.922 40.7755 114.891 40.9214C114.859 41.0646 114.844 41.2195 114.844 41.3862Z" fill="#FF7B3D"/>
<path d="M119.719 39.4214V40.1831H117.605V39.4214H119.719ZM118.137 38.3823H119.133V42.4135C119.133 42.5359 119.146 42.631 119.172 42.6987C119.198 42.7638 119.236 42.8081 119.285 42.8315C119.337 42.8549 119.4 42.8667 119.473 42.8667C119.527 42.8667 119.579 42.8628 119.629 42.8549C119.678 42.8471 119.715 42.8393 119.738 42.8315L119.734 43.6284C119.659 43.657 119.576 43.6805 119.484 43.6987C119.393 43.7169 119.284 43.726 119.156 43.726C118.953 43.726 118.775 43.687 118.621 43.6089C118.47 43.5281 118.352 43.3979 118.266 43.2182C118.18 43.0359 118.137 42.7977 118.137 42.5034V38.3823Z" fill="#FF7B3D"/>
<path d="M123.227 40.2339V45.2729H122.227V39.4214H123.148L123.227 40.2339ZM125.461 41.3784V41.687C125.461 42.0177 125.431 42.3094 125.371 42.562C125.314 42.8146 125.228 43.0281 125.113 43.2026C124.999 43.3771 124.857 43.5086 124.688 43.5971C124.518 43.6831 124.32 43.726 124.094 43.726C123.88 43.726 123.697 43.6779 123.543 43.5815C123.389 43.4852 123.259 43.3497 123.152 43.1753C123.046 43.0008 122.961 42.7964 122.898 42.562C122.836 42.3276 122.789 42.0737 122.758 41.8003V41.3237C122.786 41.032 122.831 40.7651 122.891 40.5229C122.953 40.2807 123.038 40.0711 123.145 39.894C123.251 39.7169 123.382 39.5815 123.535 39.4878C123.691 39.3914 123.875 39.3432 124.086 39.3432C124.315 39.3432 124.516 39.3849 124.688 39.4682C124.859 39.549 125.003 39.6727 125.117 39.8393C125.232 40.006 125.318 40.2182 125.375 40.476C125.432 40.7313 125.461 41.032 125.461 41.3784ZM124.457 41.687V41.3784C124.457 41.1701 124.444 40.9904 124.418 40.8393C124.395 40.6883 124.355 40.5646 124.301 40.4682C124.249 40.3719 124.18 40.3016 124.094 40.2573C124.01 40.2104 123.909 40.187 123.789 40.187C123.674 40.187 123.574 40.2104 123.488 40.2573C123.402 40.3016 123.332 40.3654 123.277 40.4487C123.223 40.532 123.178 40.6323 123.145 40.7495C123.113 40.8641 123.095 40.9917 123.09 41.1323V41.9956C123.103 42.1622 123.133 42.3133 123.18 42.4487C123.229 42.5841 123.303 42.6922 123.402 42.7729C123.501 42.851 123.633 42.8901 123.797 42.8901C123.919 42.8901 124.022 42.8654 124.105 42.8159C124.189 42.7664 124.257 42.6922 124.309 42.5932C124.363 42.4943 124.401 42.3693 124.422 42.2182C124.445 42.0672 124.457 41.8901 124.457 41.687Z" fill="#FF7B3D"/>
<path d="M127.242 37.6479V43.6479H126.238V37.6479H127.242Z" fill="#FF7B3D"/>
<path d="M129.82 43.726C129.539 43.726 129.289 43.6831 129.07 43.5971C128.854 43.5112 128.671 43.3862 128.52 43.2221C128.368 43.0581 128.253 42.8563 128.172 42.6167C128.094 42.3771 128.055 42.1023 128.055 41.7924V41.4135C128.055 41.062 128.095 40.7573 128.176 40.4995C128.257 40.2391 128.368 40.0242 128.512 39.8549C128.658 39.6831 128.832 39.5555 129.035 39.4721C129.241 39.3862 129.467 39.3432 129.715 39.3432C129.98 39.3432 130.212 39.3875 130.41 39.476C130.611 39.562 130.776 39.6909 130.906 39.8628C131.036 40.0346 131.133 40.2482 131.195 40.5034C131.26 40.756 131.293 41.049 131.293 41.3823V41.8628H128.504V41.1323H130.309V41.0346C130.303 40.8523 130.281 40.6974 130.242 40.5698C130.203 40.4422 130.141 40.3458 130.055 40.2807C129.971 40.213 129.857 40.1792 129.711 40.1792C129.596 40.1792 129.497 40.2026 129.414 40.2495C129.331 40.2938 129.263 40.3641 129.211 40.4604C129.161 40.5542 129.124 40.6805 129.098 40.8393C129.072 40.9956 129.059 41.187 129.059 41.4135V41.7924C129.059 41.993 129.077 42.1635 129.113 42.3042C129.15 42.4422 129.203 42.5555 129.273 42.644C129.344 42.7299 129.43 42.7924 129.531 42.8315C129.633 42.8706 129.751 42.8901 129.887 42.8901C130.09 42.8901 130.268 42.8536 130.422 42.7807C130.576 42.7052 130.708 42.6049 130.82 42.4799L131.238 43.0932C131.163 43.1948 131.06 43.2951 130.93 43.394C130.799 43.4904 130.642 43.5698 130.457 43.6323C130.275 43.6948 130.062 43.726 129.82 43.726Z" fill="#FF7B3D"/>
<path d="M133.031 39.4214V43.6479H132.027V39.4214H133.031ZM131.977 38.3198C131.977 38.1609 132.026 38.0307 132.125 37.9292C132.224 37.825 132.359 37.7729 132.531 37.7729C132.703 37.7729 132.837 37.825 132.934 37.9292C133.03 38.0307 133.078 38.1609 133.078 38.3198C133.078 38.476 133.03 38.6063 132.934 38.7104C132.837 38.812 132.703 38.8628 132.531 38.8628C132.359 38.8628 132.224 38.812 132.125 38.7104C132.026 38.6063 131.977 38.476 131.977 38.3198Z" fill="#FF7B3D"/>
<path d="M134.938 40.3237V43.6479H133.934V39.4214H134.871L134.938 40.3237ZM134.773 41.3862L134.484 41.3901C134.479 41.0802 134.509 40.8003 134.574 40.5503C134.642 40.2977 134.738 40.0815 134.863 39.9018C134.988 39.7221 135.138 39.5841 135.312 39.4878C135.487 39.3914 135.682 39.3432 135.898 39.3432C136.065 39.3432 136.216 39.3719 136.352 39.4292C136.49 39.4865 136.608 39.5776 136.707 39.7026C136.806 39.8276 136.883 39.9917 136.938 40.1948C136.992 40.3979 137.02 40.6466 137.02 40.9409V43.6479H136.016V40.9331C136.016 40.743 135.995 40.5945 135.953 40.4878C135.914 40.3784 135.855 40.3016 135.777 40.2573C135.702 40.2104 135.604 40.187 135.484 40.187C135.372 40.187 135.272 40.2182 135.184 40.2807C135.095 40.3406 135.02 40.4266 134.957 40.5385C134.897 40.6479 134.852 40.7755 134.82 40.9214C134.789 41.0646 134.773 41.2195 134.773 41.3862Z" fill="#FF7B3D"/>
<path d="M140.773 37.6479V43.6479H139.77V37.6479H140.773Z" fill="#FF7B3D"/>
<path d="M143.352 43.726C143.07 43.726 142.82 43.6831 142.602 43.5971C142.385 43.5112 142.202 43.3862 142.051 43.2221C141.9 43.0581 141.784 42.8563 141.703 42.6167C141.625 42.3771 141.586 42.1023 141.586 41.7924V41.4135C141.586 41.062 141.626 40.7573 141.707 40.4995C141.788 40.2391 141.9 40.0242 142.043 39.8549C142.189 39.6831 142.363 39.5555 142.566 39.4721C142.772 39.3862 142.999 39.3432 143.246 39.3432C143.512 39.3432 143.743 39.3875 143.941 39.476C144.142 39.562 144.307 39.6909 144.438 39.8628C144.568 40.0346 144.664 40.2482 144.727 40.5034C144.792 40.756 144.824 41.049 144.824 41.3823V41.8628H142.035V41.1323H143.84V41.0346C143.835 40.8523 143.812 40.6974 143.773 40.5698C143.734 40.4422 143.672 40.3458 143.586 40.2807C143.503 40.213 143.388 40.1792 143.242 40.1792C143.128 40.1792 143.029 40.2026 142.945 40.2495C142.862 40.2938 142.794 40.3641 142.742 40.4604C142.693 40.5542 142.655 40.6805 142.629 40.8393C142.603 40.9956 142.59 41.187 142.59 41.4135V41.7924C142.59 41.993 142.608 42.1635 142.645 42.3042C142.681 42.4422 142.734 42.5555 142.805 42.644C142.875 42.7299 142.961 42.7924 143.062 42.8315C143.164 42.8706 143.283 42.8901 143.418 42.8901C143.621 42.8901 143.799 42.8536 143.953 42.7807C144.107 42.7052 144.24 42.6049 144.352 42.4799L144.77 43.0932C144.694 43.1948 144.591 43.2951 144.461 43.394C144.331 43.4904 144.173 43.5698 143.988 43.6323C143.806 43.6948 143.594 43.726 143.352 43.726Z" fill="#FF7B3D"/>
<path d="M148.863 42.8901C148.973 42.8901 149.069 42.868 149.152 42.8237C149.236 42.7768 149.301 42.7039 149.348 42.6049C149.395 42.506 149.419 42.3771 149.422 42.2182H150.367C150.365 42.5255 150.296 42.7924 150.16 43.019C150.027 43.2456 149.849 43.4201 149.625 43.5424C149.404 43.6648 149.155 43.726 148.879 43.726C148.598 43.726 148.352 43.6818 148.141 43.5932C147.932 43.5021 147.76 43.3706 147.625 43.1987C147.49 43.0242 147.388 42.812 147.32 42.562C147.253 42.312 147.219 42.0268 147.219 41.7065V41.3628C147.219 41.0424 147.253 40.7573 147.32 40.5073C147.388 40.2573 147.49 40.0464 147.625 39.8745C147.76 39.7 147.932 39.5685 148.141 39.4799C148.349 39.3888 148.594 39.3432 148.875 39.3432C149.174 39.3432 149.435 39.4057 149.656 39.5307C149.878 39.6557 150.051 39.8393 150.176 40.0815C150.301 40.3211 150.365 40.6167 150.367 40.9682H149.422C149.419 40.7964 149.397 40.6531 149.355 40.5385C149.314 40.4214 149.251 40.3328 149.168 40.2729C149.087 40.2104 148.984 40.1792 148.859 40.1792C148.724 40.1792 148.613 40.2065 148.527 40.2612C148.444 40.3133 148.38 40.3901 148.336 40.4917C148.292 40.5932 148.26 40.7169 148.242 40.8628C148.227 41.0086 148.219 41.1753 148.219 41.3628V41.7065C148.219 41.8992 148.227 42.0698 148.242 42.2182C148.258 42.3641 148.288 42.4878 148.332 42.5893C148.376 42.6883 148.44 42.7638 148.523 42.8159C148.609 42.8654 148.723 42.8901 148.863 42.8901Z" fill="#FF7B3D"/>
<path d="M153.102 42.6401V39.4214H154.105V43.6479H153.164L153.102 42.6401ZM153.23 41.7651L153.523 41.7573C153.523 42.0411 153.497 42.3029 153.445 42.5424C153.393 42.782 153.312 42.9904 153.203 43.1674C153.094 43.3445 152.954 43.4826 152.785 43.5815C152.618 43.6779 152.421 43.726 152.191 43.726C152.017 43.726 151.858 43.6974 151.715 43.6401C151.572 43.5802 151.448 43.4878 151.344 43.3628C151.24 43.2352 151.159 43.0724 151.102 42.8745C151.044 42.674 151.016 42.4344 151.016 42.1557V39.4214H152.02V42.1635C152.02 42.2938 152.03 42.4057 152.051 42.4995C152.074 42.5906 152.107 42.6648 152.148 42.7221C152.19 42.7768 152.238 42.8159 152.293 42.8393C152.348 42.8628 152.408 42.8745 152.473 42.8745C152.663 42.8745 152.812 42.8263 152.922 42.7299C153.034 42.6336 153.113 42.5021 153.16 42.3354C153.207 42.1661 153.23 41.976 153.23 41.7651Z" fill="#FF7B3D"/>
<path d="M156.016 37.6479V43.6479H155.012V37.6479H156.016Z" fill="#FF7B3D"/>
</svg>
